<?xml version="1.0" standalone="no"?>
<!DOCTYPE svg PUBLIC "-//W3C//DTD SVG 20010904//EN"
 "http://www.w3.org/TR/2001/REC-SVG-20010904/DTD/svg10.dtd">
<svg version="1.0" xmlns="http://www.w3.org/2000/svg"
 width="260.000000pt" height="260.000000pt" viewBox="0 0 260.000000 260.000000"
 preserveAspectRatio="xMidYMid meet">
<metadata>
Created by potrace 1.11, written by Peter Selinger 2001-2013
</metadata>
<g transform="translate(0.000000,260.000000) scale(0.100000,-0.100000)"
fill="#000000" stroke="none">
<path d="M0 1300 l0 -1300 1300 0 1300 0 0 1300 0 1300 -1300 0 -1300 0 0
-1300z m822 598 c21 -16 450 -1212 446 -1241 -3 -20 -10 -22 -74 -25 -51 -2
-76 1 -85 11 -8 7 -38 84 -68 170 l-55 157 -262 0 -262 0 -30 -82 c-16 -46
-41 -120 -56 -166 -31 -92 -35 -95 -127 -90 -49 3 -54 5 -57 28 -4 33 424
1221 445 1238 10 7 48 12 93 12 46 0 83 -5 92 -12z m692 -10 c8 -13 94 -257
190 -542 97 -286 178 -522 181 -524 6 -6 -13 -62 186 543 94 286 176 526 181
533 11 12 113 17 142 6 9 -3 16 -13 16 -22 0 -12 -345 -1009 -412 -1188 -13
-36 -25 -54 -41 -58 -40 -11 -153 -6 -170 7 -10 7 -105 262 -232 626 -168 479
-213 616 -204 627 8 9 34 14 80 14 60 0 70 -3 83 -22z"/>
<path d="M717 1723 c-11 -17 -207 -595 -207 -610 0 -10 43 -13 215 -13 118 0
215 2 215 5 0 2 -47 138 -103 302 -57 164 -106 305 -109 313 -3 9 -7 10 -11 3z"/>
</g>
</svg>
